<mxfile host="app.diagrams.net" agent="Mozilla/5.0 (Windows NT 10.0; Win64; x64) AppleWebKit/537.36 (KHTML, like Gecko) Chrome/136.0.0.0 Safari/537.36" version="27.0.9">
  <diagram name="Страница — 1" id="_Hq8KSzYvzl9_iBjKkbN">
    <mxGraphModel dx="1426" dy="743" grid="1" gridSize="10" guides="1" tooltips="1" connect="1" arrows="1" fold="1" page="1" pageScale="1" pageWidth="827" pageHeight="1169" math="0" shadow="0">
      <root>
        <mxCell id="0" />
        <mxCell id="1" parent="0" />
        <mxCell id="GTygRbnSgIM2suDTqCzU-1" value="Чек-Товар" style="rounded=0;whiteSpace=wrap;html=1;" vertex="1" parent="1">
          <mxGeometry x="150" y="100" width="120" height="60" as="geometry" />
        </mxCell>
        <mxCell id="GTygRbnSgIM2suDTqCzU-2" value="Чек" style="rounded=0;whiteSpace=wrap;html=1;" vertex="1" parent="1">
          <mxGeometry x="600" y="100" width="120" height="60" as="geometry" />
        </mxCell>
        <mxCell id="GTygRbnSgIM2suDTqCzU-3" value="Товар" style="rounded=0;whiteSpace=wrap;html=1;" vertex="1" parent="1">
          <mxGeometry x="150" y="500" width="120" height="60" as="geometry" />
        </mxCell>
        <mxCell id="GTygRbnSgIM2suDTqCzU-4" value="Пользователь" style="rounded=0;whiteSpace=wrap;html=1;" vertex="1" parent="1">
          <mxGeometry x="600" y="500" width="120" height="60" as="geometry" />
        </mxCell>
        <mxCell id="GTygRbnSgIM2suDTqCzU-6" value="" style="endArrow=classic;html=1;rounded=0;entryX=0.5;entryY=0;entryDx=0;entryDy=0;exitX=0.5;exitY=1;exitDx=0;exitDy=0;" edge="1" parent="1" source="GTygRbnSgIM2suDTqCzU-20" target="GTygRbnSgIM2suDTqCzU-3">
          <mxGeometry width="50" height="50" relative="1" as="geometry">
            <mxPoint x="240" y="230" as="sourcePoint" />
            <mxPoint x="190" y="320" as="targetPoint" />
          </mxGeometry>
        </mxCell>
        <mxCell id="GTygRbnSgIM2suDTqCzU-7" value="" style="endArrow=classic;html=1;rounded=0;exitX=1;exitY=0.5;exitDx=0;exitDy=0;entryX=0;entryY=0.5;entryDx=0;entryDy=0;" edge="1" parent="1" source="GTygRbnSgIM2suDTqCzU-18" target="GTygRbnSgIM2suDTqCzU-2">
          <mxGeometry width="50" height="50" relative="1" as="geometry">
            <mxPoint x="370" y="160" as="sourcePoint" />
            <mxPoint x="420" y="110" as="targetPoint" />
          </mxGeometry>
        </mxCell>
        <mxCell id="GTygRbnSgIM2suDTqCzU-8" value="" style="endArrow=classic;html=1;rounded=0;entryX=0.5;entryY=0;entryDx=0;entryDy=0;exitX=0.5;exitY=1;exitDx=0;exitDy=0;" edge="1" parent="1" source="GTygRbnSgIM2suDTqCzU-16" target="GTygRbnSgIM2suDTqCzU-4">
          <mxGeometry width="50" height="50" relative="1" as="geometry">
            <mxPoint x="540" y="360" as="sourcePoint" />
            <mxPoint x="590" y="310" as="targetPoint" />
          </mxGeometry>
        </mxCell>
        <mxCell id="GTygRbnSgIM2suDTqCzU-13" value="" style="endArrow=classic;html=1;rounded=0;entryX=0;entryY=0.5;entryDx=0;entryDy=0;" edge="1" parent="1" source="GTygRbnSgIM2suDTqCzU-10" target="GTygRbnSgIM2suDTqCzU-4">
          <mxGeometry width="50" height="50" relative="1" as="geometry">
            <mxPoint x="270" y="580" as="sourcePoint" />
            <mxPoint x="340.71067811865476" y="530" as="targetPoint" />
          </mxGeometry>
        </mxCell>
        <mxCell id="GTygRbnSgIM2suDTqCzU-10" value="Пользователь выбирает товары" style="rhombus;whiteSpace=wrap;html=1;" vertex="1" parent="1">
          <mxGeometry x="400" y="460" width="120" height="140" as="geometry" />
        </mxCell>
        <mxCell id="GTygRbnSgIM2suDTqCzU-16" value="Пользователь получает чеки" style="rhombus;whiteSpace=wrap;html=1;" vertex="1" parent="1">
          <mxGeometry x="600" y="260" width="120" height="150" as="geometry" />
        </mxCell>
        <mxCell id="GTygRbnSgIM2suDTqCzU-18" value="Информация о товаре из чека" style="rhombus;whiteSpace=wrap;html=1;" vertex="1" parent="1">
          <mxGeometry x="390" y="60" width="110" height="140" as="geometry" />
        </mxCell>
        <mxCell id="GTygRbnSgIM2suDTqCzU-20" value="Информация о чеках с данным товаром" style="rhombus;whiteSpace=wrap;html=1;" vertex="1" parent="1">
          <mxGeometry x="155" y="210" width="110" height="170" as="geometry" />
        </mxCell>
        <mxCell id="GTygRbnSgIM2suDTqCzU-21" value="" style="endArrow=none;html=1;rounded=0;entryX=0;entryY=0.5;entryDx=0;entryDy=0;" edge="1" parent="1" source="GTygRbnSgIM2suDTqCzU-1" target="GTygRbnSgIM2suDTqCzU-18">
          <mxGeometry width="50" height="50" relative="1" as="geometry">
            <mxPoint x="270" y="180" as="sourcePoint" />
            <mxPoint x="340.71067811865476" y="130" as="targetPoint" />
          </mxGeometry>
        </mxCell>
        <mxCell id="GTygRbnSgIM2suDTqCzU-22" value="" style="endArrow=none;html=1;rounded=0;entryX=0.5;entryY=1;entryDx=0;entryDy=0;" edge="1" parent="1" source="GTygRbnSgIM2suDTqCzU-20" target="GTygRbnSgIM2suDTqCzU-1">
          <mxGeometry width="50" height="50" relative="1" as="geometry">
            <mxPoint x="210" y="279.28932188134524" as="sourcePoint" />
            <mxPoint x="210" y="229.28932188134524" as="targetPoint" />
          </mxGeometry>
        </mxCell>
        <mxCell id="GTygRbnSgIM2suDTqCzU-23" value="" style="endArrow=none;html=1;rounded=0;entryX=0;entryY=0.5;entryDx=0;entryDy=0;" edge="1" parent="1" source="GTygRbnSgIM2suDTqCzU-3" target="GTygRbnSgIM2suDTqCzU-10">
          <mxGeometry width="50" height="50" relative="1" as="geometry">
            <mxPoint x="270" y="580" as="sourcePoint" />
            <mxPoint x="340.71067811865476" y="530" as="targetPoint" />
          </mxGeometry>
        </mxCell>
        <mxCell id="GTygRbnSgIM2suDTqCzU-24" value="" style="endArrow=none;html=1;rounded=0;entryX=0.5;entryY=0;entryDx=0;entryDy=0;" edge="1" parent="1" source="GTygRbnSgIM2suDTqCzU-2" target="GTygRbnSgIM2suDTqCzU-16">
          <mxGeometry width="50" height="50" relative="1" as="geometry">
            <mxPoint x="660" y="210" as="sourcePoint" />
            <mxPoint x="660" y="230.71067811865476" as="targetPoint" />
          </mxGeometry>
        </mxCell>
        <mxCell id="GTygRbnSgIM2suDTqCzU-35" value="Имя&amp;nbsp;&lt;span style=&quot;background-color: transparent; color: light-dark(rgb(0, 0, 0), rgb(255, 255, 255));&quot;&gt;пользователя&lt;/span&gt;" style="ellipse;whiteSpace=wrap;html=1;" vertex="1" parent="1">
          <mxGeometry x="578" y="585" width="120" height="80" as="geometry" />
        </mxCell>
        <mxCell id="GTygRbnSgIM2suDTqCzU-36" value="" style="endArrow=none;html=1;rounded=0;" edge="1" parent="1" source="GTygRbnSgIM2suDTqCzU-35" target="GTygRbnSgIM2suDTqCzU-4">
          <mxGeometry width="50" height="50" relative="1" as="geometry">
            <mxPoint x="730" y="640" as="sourcePoint" />
            <mxPoint x="780" y="590" as="targetPoint" />
          </mxGeometry>
        </mxCell>
        <mxCell id="GTygRbnSgIM2suDTqCzU-37" value="id товара&lt;br&gt;внешний&lt;span style=&quot;color: rgba(0, 0, 0, 0); font-family: monospace; font-size: 0px; text-align: start; text-wrap-mode: nowrap;&quot;&gt;%3CmxGraphModel%3E%3Croot%3E%3CmxCell%20id%3D%220%22%2F%3E%3CmxCell%20id%3D%221%22%20parent%3D%220%22%2F%3E%3CmxCell%20id%3D%222%22%20value%3D%22id%20%D0%BF%D0%BE%D0%BB%D1%8C%D0%B7%D0%BE%D0%B2%D0%B0%D1%82%D0%B5%D0%BB%D1%8F%26lt%3Bdiv%26gt%3B%D0%B2%D0%BD%D0%B5%D1%88%D0%BD%D0%B8%D0%B9%26lt%3B%2Fdiv%26gt%3B%22%20style%3D%22ellipse%3BwhiteSpace%3Dwrap%3Bhtml%3D1%3Balign%3Dcenter%3B%22%20vertex%3D%221%22%20parent%3D%221%22%3E%3CmxGeometry%20x%3D%22727%22%20y%3D%22110%22%20width%3D%22100%22%20height%3D%2240%22%20as%3D%22geometry%22%2F%3E%3C%2FmxCell%3E%3C%2Froot%3E%3C%2FmxGraphModel%3E&lt;/span&gt;" style="ellipse;whiteSpace=wrap;html=1;" vertex="1" parent="1">
          <mxGeometry x="50" y="10" width="120" height="80" as="geometry" />
        </mxCell>
        <mxCell id="GTygRbnSgIM2suDTqCzU-38" value="" style="endArrow=none;html=1;rounded=0;" edge="1" parent="1" source="GTygRbnSgIM2suDTqCzU-1" target="GTygRbnSgIM2suDTqCzU-37">
          <mxGeometry width="50" height="50" relative="1" as="geometry">
            <mxPoint x="60" y="190" as="sourcePoint" />
            <mxPoint x="110" y="140" as="targetPoint" />
          </mxGeometry>
        </mxCell>
        <mxCell id="GTygRbnSgIM2suDTqCzU-39" value="Цена" style="ellipse;whiteSpace=wrap;html=1;" vertex="1" parent="1">
          <mxGeometry x="160" y="600" width="120" height="80" as="geometry" />
        </mxCell>
        <mxCell id="GTygRbnSgIM2suDTqCzU-40" value="Информация о скидке" style="ellipse;whiteSpace=wrap;html=1;" vertex="1" parent="1">
          <mxGeometry x="20" y="520" width="120" height="80" as="geometry" />
        </mxCell>
        <mxCell id="GTygRbnSgIM2suDTqCzU-41" value="" style="endArrow=none;html=1;rounded=0;" edge="1" parent="1" source="GTygRbnSgIM2suDTqCzU-40" target="GTygRbnSgIM2suDTqCzU-3">
          <mxGeometry width="50" height="50" relative="1" as="geometry">
            <mxPoint x="50" y="450" as="sourcePoint" />
            <mxPoint x="100" y="400" as="targetPoint" />
          </mxGeometry>
        </mxCell>
        <mxCell id="GTygRbnSgIM2suDTqCzU-42" value="" style="endArrow=none;html=1;rounded=0;exitX=0;exitY=0;exitDx=0;exitDy=0;" edge="1" parent="1" source="GTygRbnSgIM2suDTqCzU-39" target="GTygRbnSgIM2suDTqCzU-3">
          <mxGeometry width="50" height="50" relative="1" as="geometry">
            <mxPoint x="160" y="600" as="sourcePoint" />
            <mxPoint x="210" y="550" as="targetPoint" />
          </mxGeometry>
        </mxCell>
        <mxCell id="GTygRbnSgIM2suDTqCzU-43" value="id связки" style="ellipse;whiteSpace=wrap;html=1;" vertex="1" parent="1">
          <mxGeometry y="90" width="120" height="80" as="geometry" />
        </mxCell>
        <mxCell id="GTygRbnSgIM2suDTqCzU-45" value="id товара" style="ellipse;whiteSpace=wrap;html=1;" vertex="1" parent="1">
          <mxGeometry x="30" y="610" width="120" height="80" as="geometry" />
        </mxCell>
        <mxCell id="GTygRbnSgIM2suDTqCzU-46" value="Сумма за товар" style="ellipse;whiteSpace=wrap;html=1;" vertex="1" parent="1">
          <mxGeometry x="600" width="120" height="80" as="geometry" />
        </mxCell>
        <mxCell id="GTygRbnSgIM2suDTqCzU-47" value="id чека" style="ellipse;whiteSpace=wrap;html=1;" vertex="1" parent="1">
          <mxGeometry x="680" y="180" width="120" height="80" as="geometry" />
        </mxCell>
        <mxCell id="GTygRbnSgIM2suDTqCzU-48" value="id пользователя" style="ellipse;whiteSpace=wrap;html=1;" vertex="1" parent="1">
          <mxGeometry x="707" y="560" width="120" height="80" as="geometry" />
        </mxCell>
        <mxCell id="GTygRbnSgIM2suDTqCzU-49" value="" style="endArrow=none;html=1;rounded=0;exitX=1;exitY=1;exitDx=0;exitDy=0;" edge="1" parent="1" source="GTygRbnSgIM2suDTqCzU-43" target="GTygRbnSgIM2suDTqCzU-1">
          <mxGeometry width="50" height="50" relative="1" as="geometry">
            <mxPoint x="130" y="160" as="sourcePoint" />
            <mxPoint x="180" y="120" as="targetPoint" />
          </mxGeometry>
        </mxCell>
        <mxCell id="GTygRbnSgIM2suDTqCzU-50" value="" style="endArrow=none;html=1;rounded=0;" edge="1" parent="1" source="GTygRbnSgIM2suDTqCzU-2" target="GTygRbnSgIM2suDTqCzU-46">
          <mxGeometry width="50" height="50" relative="1" as="geometry">
            <mxPoint x="560" y="130" as="sourcePoint" />
            <mxPoint x="610" y="80" as="targetPoint" />
          </mxGeometry>
        </mxCell>
        <mxCell id="GTygRbnSgIM2suDTqCzU-51" value="" style="endArrow=none;html=1;rounded=0;" edge="1" parent="1" source="GTygRbnSgIM2suDTqCzU-47" target="GTygRbnSgIM2suDTqCzU-2">
          <mxGeometry width="50" height="50" relative="1" as="geometry">
            <mxPoint x="690" y="200" as="sourcePoint" />
            <mxPoint x="740" y="150" as="targetPoint" />
          </mxGeometry>
        </mxCell>
        <mxCell id="GTygRbnSgIM2suDTqCzU-52" value="" style="endArrow=none;html=1;rounded=0;" edge="1" parent="1" source="GTygRbnSgIM2suDTqCzU-48" target="GTygRbnSgIM2suDTqCzU-4">
          <mxGeometry width="50" height="50" relative="1" as="geometry">
            <mxPoint x="740" y="550" as="sourcePoint" />
            <mxPoint x="790" y="500" as="targetPoint" />
          </mxGeometry>
        </mxCell>
        <mxCell id="GTygRbnSgIM2suDTqCzU-53" value="" style="endArrow=none;html=1;rounded=0;exitX=1;exitY=0;exitDx=0;exitDy=0;" edge="1" parent="1" source="GTygRbnSgIM2suDTqCzU-45" target="GTygRbnSgIM2suDTqCzU-3">
          <mxGeometry width="50" height="50" relative="1" as="geometry">
            <mxPoint x="130" y="610" as="sourcePoint" />
            <mxPoint x="180" y="560" as="targetPoint" />
          </mxGeometry>
        </mxCell>
        <mxCell id="GTygRbnSgIM2suDTqCzU-54" value="Остаток" style="ellipse;whiteSpace=wrap;html=1;align=center;" vertex="1" parent="1">
          <mxGeometry x="280" y="570" width="100" height="40" as="geometry" />
        </mxCell>
        <mxCell id="GTygRbnSgIM2suDTqCzU-55" value="" style="endArrow=none;html=1;rounded=0;" edge="1" parent="1" source="GTygRbnSgIM2suDTqCzU-3" target="GTygRbnSgIM2suDTqCzU-54">
          <mxGeometry width="50" height="50" relative="1" as="geometry">
            <mxPoint x="280" y="610" as="sourcePoint" />
            <mxPoint x="330" y="560" as="targetPoint" />
          </mxGeometry>
        </mxCell>
        <mxCell id="GTygRbnSgIM2suDTqCzU-61" style="edgeStyle=orthogonalEdgeStyle;rounded=0;orthogonalLoop=1;jettySize=auto;html=1;endArrow=none;startFill=0;" edge="1" parent="1" source="GTygRbnSgIM2suDTqCzU-58" target="GTygRbnSgIM2suDTqCzU-2">
          <mxGeometry relative="1" as="geometry" />
        </mxCell>
        <mxCell id="GTygRbnSgIM2suDTqCzU-58" value="id пользователя&lt;div&gt;внешний&lt;/div&gt;" style="ellipse;whiteSpace=wrap;html=1;align=center;" vertex="1" parent="1">
          <mxGeometry x="740" y="90" width="87" height="60" as="geometry" />
        </mxCell>
        <mxCell id="GTygRbnSgIM2suDTqCzU-59" value="id пользователя&lt;div&gt;внешний&lt;/div&gt;" style="ellipse;whiteSpace=wrap;html=1;align=center;" vertex="1" parent="1">
          <mxGeometry x="280" y="650" width="100" height="70" as="geometry" />
        </mxCell>
        <mxCell id="GTygRbnSgIM2suDTqCzU-60" value="" style="endArrow=none;html=1;rounded=0;" edge="1" parent="1" source="GTygRbnSgIM2suDTqCzU-59" target="GTygRbnSgIM2suDTqCzU-3">
          <mxGeometry width="50" height="50" relative="1" as="geometry">
            <mxPoint x="230" y="630" as="sourcePoint" />
            <mxPoint x="280" y="580" as="targetPoint" />
          </mxGeometry>
        </mxCell>
        <mxCell id="GTygRbnSgIM2suDTqCzU-62" value="id чека&lt;div&gt;внешний&lt;span style=&quot;color: rgba(0, 0, 0, 0); font-family: monospace; font-size: 0px; text-align: start; text-wrap-mode: nowrap;&quot;&gt;%3CmxGraphModel%3E%3Croot%3E%3CmxCell%20id%3D%220%22%2F%3E%3CmxCell%20id%3D%221%22%20parent%3D%220%22%2F%3E%3CmxCell%20id%3D%222%22%20value%3D%22id%20%D0%BF%D0%BE%D0%BB%D1%8C%D0%B7%D0%BE%D0%B2%D0%B0%D1%82%D0%B5%D0%BB%D1%8F%26lt%3Bdiv%26gt%3B%D0%B2%D0%BD%D0%B5%D1%88%D0%BD%D0%B8%D0%B9%26lt%3B%2Fdiv%26gt%3B%22%20style%3D%22ellipse%3BwhiteSpace%3Dwrap%3Bhtml%3D1%3Balign%3Dcenter%3B%22%20vertex%3D%221%22%20parent%3D%221%22%3E%3CmxGeometry%20x%3D%22727%22%20y%3D%22110%22%20width%3D%22100%22%20height%3D%2240%22%20as%3D%22geometry%22%2F%3E%3C%2FmxCell%3E%3C%2Froot%3E%3C%2FmxGraphModel%3E&lt;/span&gt;&lt;/div&gt;" style="ellipse;whiteSpace=wrap;html=1;" vertex="1" parent="1">
          <mxGeometry x="180" y="10" width="120" height="80" as="geometry" />
        </mxCell>
        <mxCell id="GTygRbnSgIM2suDTqCzU-64" value="" style="endArrow=none;html=1;rounded=0;" edge="1" parent="1" source="GTygRbnSgIM2suDTqCzU-1" target="GTygRbnSgIM2suDTqCzU-62">
          <mxGeometry width="50" height="50" relative="1" as="geometry">
            <mxPoint x="200" y="130" as="sourcePoint" />
            <mxPoint x="250" y="80" as="targetPoint" />
          </mxGeometry>
        </mxCell>
      </root>
    </mxGraphModel>
  </diagram>
</mxfile>
